<mxfile host="Electron" agent="Mozilla/5.0 (Windows NT 10.0; Win64; x64) AppleWebKit/537.36 (KHTML, like Gecko) draw.io/25.0.2 Chrome/128.0.6613.186 Electron/32.2.5 Safari/537.36" version="25.0.2">
  <diagram name="Page-1" id="rowEF2O978AL6KbjrWxw">
    <mxGraphModel dx="1105" dy="654" grid="1" gridSize="10" guides="1" tooltips="1" connect="1" arrows="1" fold="1" page="1" pageScale="1" pageWidth="1169" pageHeight="827" math="0" shadow="0">
      <root>
        <mxCell id="0" />
        <mxCell id="1" parent="0" />
        <mxCell id="_y7poPwMKWdNdrLzsewM-1" value="&lt;font style=&quot;font-size: 16px;&quot;&gt;Navigateur&lt;/font&gt;" style="swimlane;whiteSpace=wrap;html=1;rounded=0;labelBackgroundColor=none;fillColor=#FAE5C7;strokeColor=#0F8B8D;fontColor=#143642;" vertex="1" parent="1">
          <mxGeometry x="520" y="159" width="220" height="510" as="geometry" />
        </mxCell>
        <mxCell id="_y7poPwMKWdNdrLzsewM-2" style="edgeStyle=orthogonalEdgeStyle;rounded=0;orthogonalLoop=1;jettySize=auto;html=1;exitX=0;exitY=0.5;exitDx=0;exitDy=0;entryX=1;entryY=0.5;entryDx=0;entryDy=0;startArrow=open;startFill=0;endArrow=none;endFill=0;dashed=1;dashPattern=8 8;" edge="1" parent="_y7poPwMKWdNdrLzsewM-1" target="_y7poPwMKWdNdrLzsewM-7">
          <mxGeometry relative="1" as="geometry">
            <mxPoint x="175" y="335" as="sourcePoint" />
          </mxGeometry>
        </mxCell>
        <mxCell id="_y7poPwMKWdNdrLzsewM-3" value="" style="ellipse;html=1;shape=startState;fillColor=#ff4d4d;strokeColor=#B20000;rounded=0;labelBackgroundColor=none;fontColor=#ffffff;" vertex="1" parent="_y7poPwMKWdNdrLzsewM-1">
          <mxGeometry x="75" y="40" width="30" height="30" as="geometry" />
        </mxCell>
        <mxCell id="_y7poPwMKWdNdrLzsewM-4" value="" style="edgeStyle=orthogonalEdgeStyle;html=1;verticalAlign=bottom;endArrow=open;endSize=8;strokeColor=#A8201A;rounded=0;labelBackgroundColor=none;fontColor=default;" edge="1" parent="_y7poPwMKWdNdrLzsewM-1" source="_y7poPwMKWdNdrLzsewM-3">
          <mxGeometry relative="1" as="geometry">
            <mxPoint x="90" y="140" as="targetPoint" />
          </mxGeometry>
        </mxCell>
        <mxCell id="_y7poPwMKWdNdrLzsewM-5" value="Récupérer&lt;span style=&quot;background-color: initial;&quot;&gt;&amp;nbsp;les images de la caméra&lt;/span&gt;" style="rounded=0;whiteSpace=wrap;html=1;labelBackgroundColor=none;fillColor=#FAE5C7;strokeColor=#0F8B8D;fontColor=#143642;" vertex="1" parent="_y7poPwMKWdNdrLzsewM-1">
          <mxGeometry x="30" y="110" width="120" height="60" as="geometry" />
        </mxCell>
        <mxCell id="_y7poPwMKWdNdrLzsewM-6" value="" style="edgeStyle=orthogonalEdgeStyle;rounded=0;orthogonalLoop=1;jettySize=auto;html=1;labelBackgroundColor=none;strokeColor=#A8201A;fontColor=default;exitX=0.5;exitY=1;exitDx=0;exitDy=0;entryX=0.5;entryY=0;entryDx=0;entryDy=0;" edge="1" parent="_y7poPwMKWdNdrLzsewM-1" source="_y7poPwMKWdNdrLzsewM-9" target="_y7poPwMKWdNdrLzsewM-7">
          <mxGeometry relative="1" as="geometry">
            <mxPoint x="89.32999999999998" y="319" as="sourcePoint" />
            <mxPoint x="89.32999999999998" y="409" as="targetPoint" />
          </mxGeometry>
        </mxCell>
        <mxCell id="_y7poPwMKWdNdrLzsewM-7" value="Envoyer les positions des objets au serveur" style="rounded=0;whiteSpace=wrap;html=1;labelBackgroundColor=none;fillColor=#FAE5C7;strokeColor=#0F8B8D;fontColor=#143642;" vertex="1" parent="_y7poPwMKWdNdrLzsewM-1">
          <mxGeometry x="30" y="305" width="120" height="60" as="geometry" />
        </mxCell>
        <mxCell id="_y7poPwMKWdNdrLzsewM-8" value="" style="edgeStyle=orthogonalEdgeStyle;rounded=0;orthogonalLoop=1;jettySize=auto;html=1;labelBackgroundColor=none;strokeColor=#A8201A;fontColor=default;exitX=0.5;exitY=1;exitDx=0;exitDy=0;entryX=0.5;entryY=0;entryDx=0;entryDy=0;" edge="1" parent="_y7poPwMKWdNdrLzsewM-1" source="_y7poPwMKWdNdrLzsewM-5" target="_y7poPwMKWdNdrLzsewM-9">
          <mxGeometry relative="1" as="geometry">
            <mxPoint x="30" y="190" as="sourcePoint" />
            <mxPoint x="89.32999999999998" y="260" as="targetPoint" />
          </mxGeometry>
        </mxCell>
        <mxCell id="_y7poPwMKWdNdrLzsewM-9" value="Dessiner les images de la caméra dans un canvas" style="rounded=0;whiteSpace=wrap;html=1;labelBackgroundColor=none;fillColor=#FAE5C7;strokeColor=#0F8B8D;fontColor=#143642;" vertex="1" parent="_y7poPwMKWdNdrLzsewM-1">
          <mxGeometry x="30" y="210" width="120" height="60" as="geometry" />
        </mxCell>
        <mxCell id="_y7poPwMKWdNdrLzsewM-10" value="&lt;font style=&quot;font-size: 16px;&quot;&gt;Serveur&lt;/font&gt;" style="swimlane;whiteSpace=wrap;html=1;rounded=0;labelBackgroundColor=none;fillColor=#FAE5C7;strokeColor=#0F8B8D;fontColor=#143642;" vertex="1" parent="1">
          <mxGeometry x="740" y="159" width="270" height="510" as="geometry" />
        </mxCell>
        <mxCell id="_y7poPwMKWdNdrLzsewM-11" value="" style="ellipse;html=1;shape=startState;fillColor=#ff4d4d;strokeColor=#B20000;rounded=0;labelBackgroundColor=none;fontColor=#ffffff;" vertex="1" parent="_y7poPwMKWdNdrLzsewM-10">
          <mxGeometry x="120" y="30" width="30" height="30" as="geometry" />
        </mxCell>
        <mxCell id="_y7poPwMKWdNdrLzsewM-12" value="" style="edgeStyle=orthogonalEdgeStyle;html=1;verticalAlign=bottom;endArrow=open;endSize=8;strokeColor=#A8201A;rounded=0;labelBackgroundColor=none;fontColor=default;entryX=0.5;entryY=0;entryDx=0;entryDy=0;" edge="1" parent="_y7poPwMKWdNdrLzsewM-10" source="_y7poPwMKWdNdrLzsewM-11" target="_y7poPwMKWdNdrLzsewM-14">
          <mxGeometry relative="1" as="geometry">
            <mxPoint x="95" y="120" as="targetPoint" />
          </mxGeometry>
        </mxCell>
        <mxCell id="_y7poPwMKWdNdrLzsewM-13" value="" style="edgeStyle=orthogonalEdgeStyle;rounded=0;orthogonalLoop=1;jettySize=auto;html=1;labelBackgroundColor=none;strokeColor=#A8201A;fontColor=default;" edge="1" parent="_y7poPwMKWdNdrLzsewM-10" source="_y7poPwMKWdNdrLzsewM-14" target="_y7poPwMKWdNdrLzsewM-16">
          <mxGeometry relative="1" as="geometry" />
        </mxCell>
        <mxCell id="_y7poPwMKWdNdrLzsewM-14" value="Lancer le serveur" style="rounded=0;whiteSpace=wrap;html=1;labelBackgroundColor=none;fillColor=#FAE5C7;strokeColor=#0F8B8D;fontColor=#143642;" vertex="1" parent="_y7poPwMKWdNdrLzsewM-10">
          <mxGeometry x="75" y="90" width="120" height="60" as="geometry" />
        </mxCell>
        <mxCell id="_y7poPwMKWdNdrLzsewM-15" value="" style="edgeStyle=orthogonalEdgeStyle;rounded=0;orthogonalLoop=1;jettySize=auto;html=1;labelBackgroundColor=none;strokeColor=#A8201A;fontColor=default;entryX=0.5;entryY=0;entryDx=0;entryDy=0;" edge="1" parent="_y7poPwMKWdNdrLzsewM-10" source="_y7poPwMKWdNdrLzsewM-16" target="_y7poPwMKWdNdrLzsewM-18">
          <mxGeometry relative="1" as="geometry">
            <mxPoint x="135" y="310" as="targetPoint" />
          </mxGeometry>
        </mxCell>
        <mxCell id="_y7poPwMKWdNdrLzsewM-16" value="Lancer un scénario" style="whiteSpace=wrap;html=1;rounded=0;labelBackgroundColor=none;fillColor=#FAE5C7;strokeColor=#0F8B8D;fontColor=#143642;" vertex="1" parent="_y7poPwMKWdNdrLzsewM-10">
          <mxGeometry x="75" y="190" width="120" height="60" as="geometry" />
        </mxCell>
        <mxCell id="_y7poPwMKWdNdrLzsewM-17" value="Envoyer les ordres du scénario au robot" style="whiteSpace=wrap;html=1;rounded=0;labelBackgroundColor=none;fillColor=#FAE5C7;strokeColor=#0F8B8D;fontColor=#143642;" vertex="1" parent="_y7poPwMKWdNdrLzsewM-10">
          <mxGeometry x="75" y="414" width="120" height="60" as="geometry" />
        </mxCell>
        <mxCell id="_y7poPwMKWdNdrLzsewM-18" value="Traiter les données reçues" style="whiteSpace=wrap;html=1;rounded=0;labelBackgroundColor=none;fillColor=#FAE5C7;strokeColor=#0F8B8D;fontColor=#143642;" vertex="1" parent="_y7poPwMKWdNdrLzsewM-10">
          <mxGeometry x="75" y="305" width="120" height="60" as="geometry" />
        </mxCell>
        <mxCell id="_y7poPwMKWdNdrLzsewM-19" value="" style="edgeStyle=orthogonalEdgeStyle;rounded=0;orthogonalLoop=1;jettySize=auto;html=1;labelBackgroundColor=none;strokeColor=#A8201A;fontColor=default;entryX=0.5;entryY=0;entryDx=0;entryDy=0;exitX=0.5;exitY=1;exitDx=0;exitDy=0;" edge="1" parent="_y7poPwMKWdNdrLzsewM-10" source="_y7poPwMKWdNdrLzsewM-18" target="_y7poPwMKWdNdrLzsewM-17">
          <mxGeometry relative="1" as="geometry">
            <mxPoint x="135" y="380" as="sourcePoint" />
            <mxPoint x="145" y="320" as="targetPoint" />
          </mxGeometry>
        </mxCell>
        <mxCell id="_y7poPwMKWdNdrLzsewM-20" style="edgeStyle=orthogonalEdgeStyle;rounded=0;orthogonalLoop=1;jettySize=auto;html=1;exitX=0;exitY=0.5;exitDx=0;exitDy=0;entryX=1;entryY=0.5;entryDx=0;entryDy=0;startArrow=open;startFill=0;endArrow=none;endFill=0;dashed=1;dashPattern=8 8;" edge="1" parent="_y7poPwMKWdNdrLzsewM-10" target="_y7poPwMKWdNdrLzsewM-17">
          <mxGeometry relative="1" as="geometry">
            <mxPoint x="230" y="443.5" as="sourcePoint" />
            <mxPoint x="-170" y="345" as="targetPoint" />
          </mxGeometry>
        </mxCell>
        <mxCell id="_y7poPwMKWdNdrLzsewM-21" value="Données" style="html=1;whiteSpace=wrap;rounded=0;labelBackgroundColor=none;fillColor=#FAE5C7;strokeColor=#0F8B8D;fontColor=#143642;" vertex="1" parent="_y7poPwMKWdNdrLzsewM-10">
          <mxGeometry x="-40" y="310" width="80" height="50" as="geometry" />
        </mxCell>
        <mxCell id="_y7poPwMKWdNdrLzsewM-22" value="&lt;font style=&quot;font-size: 16px;&quot;&gt;Robot&lt;/font&gt;" style="swimlane;whiteSpace=wrap;html=1;rounded=0;labelBackgroundColor=none;fillColor=#FAE5C7;strokeColor=#0F8B8D;fontColor=#143642;" vertex="1" parent="1">
          <mxGeometry x="1010" y="159" width="470" height="510" as="geometry">
            <mxRectangle x="10" y="-30" width="80" height="30" as="alternateBounds" />
          </mxGeometry>
        </mxCell>
        <mxCell id="_y7poPwMKWdNdrLzsewM-23" value="[Non]" style="text;html=1;align=center;verticalAlign=middle;whiteSpace=wrap;rounded=0;fontColor=#143642;labelBackgroundColor=none;" vertex="1" parent="_y7poPwMKWdNdrLzsewM-22">
          <mxGeometry x="70" y="260" width="60" height="30" as="geometry" />
        </mxCell>
        <mxCell id="_y7poPwMKWdNdrLzsewM-24" value="" style="ellipse;html=1;shape=startState;fillColor=#ff4d4d;strokeColor=#B20000;rounded=0;labelBackgroundColor=none;fontColor=#ffffff;" vertex="1" parent="_y7poPwMKWdNdrLzsewM-22">
          <mxGeometry x="145" y="70" width="30" height="30" as="geometry" />
        </mxCell>
        <mxCell id="_y7poPwMKWdNdrLzsewM-25" value="Connexion au réseau" style="rounded=0;whiteSpace=wrap;html=1;labelBackgroundColor=none;fillColor=#FAE5C7;strokeColor=#0F8B8D;fontColor=#143642;" vertex="1" parent="_y7poPwMKWdNdrLzsewM-22">
          <mxGeometry x="100" y="160" width="120" height="60" as="geometry" />
        </mxCell>
        <mxCell id="_y7poPwMKWdNdrLzsewM-26" value="" style="edgeStyle=orthogonalEdgeStyle;html=1;verticalAlign=bottom;endArrow=open;endSize=8;strokeColor=#A8201A;rounded=0;fontColor=default;fillColor=#FAE5C7;entryX=0.5;entryY=0;entryDx=0;entryDy=0;labelBackgroundColor=none;" edge="1" parent="_y7poPwMKWdNdrLzsewM-22" source="_y7poPwMKWdNdrLzsewM-24" target="_y7poPwMKWdNdrLzsewM-25">
          <mxGeometry relative="1" as="geometry">
            <mxPoint x="90" y="479" as="targetPoint" />
          </mxGeometry>
        </mxCell>
        <mxCell id="_y7poPwMKWdNdrLzsewM-27" value="Toujours connecté ?" style="rhombus;whiteSpace=wrap;html=1;labelBackgroundColor=none;fillColor=#FAE5C7;strokeColor=#0F8B8D;fontColor=#143642;rounded=0;" vertex="1" parent="_y7poPwMKWdNdrLzsewM-22">
          <mxGeometry x="115" y="280" width="90" height="90" as="geometry" />
        </mxCell>
        <mxCell id="_y7poPwMKWdNdrLzsewM-28" style="edgeStyle=orthogonalEdgeStyle;rounded=0;orthogonalLoop=1;jettySize=auto;html=1;exitX=0;exitY=0.5;exitDx=0;exitDy=0;entryX=0;entryY=0.5;entryDx=0;entryDy=0;strokeColor=#A8201A;fontColor=default;fillColor=#FAE5C7;labelBackgroundColor=none;" edge="1" parent="_y7poPwMKWdNdrLzsewM-22" source="_y7poPwMKWdNdrLzsewM-27" target="_y7poPwMKWdNdrLzsewM-25">
          <mxGeometry relative="1" as="geometry" />
        </mxCell>
        <mxCell id="_y7poPwMKWdNdrLzsewM-29" style="edgeStyle=orthogonalEdgeStyle;rounded=0;orthogonalLoop=1;jettySize=auto;html=1;exitX=0.5;exitY=1;exitDx=0;exitDy=0;entryX=0.5;entryY=0;entryDx=0;entryDy=0;strokeColor=#A8201A;fontColor=default;fillColor=#FAE5C7;endArrow=block;endFill=1;labelBackgroundColor=none;" edge="1" parent="_y7poPwMKWdNdrLzsewM-22" source="_y7poPwMKWdNdrLzsewM-25" target="_y7poPwMKWdNdrLzsewM-27">
          <mxGeometry relative="1" as="geometry">
            <mxPoint x="220" y="445" as="sourcePoint" />
            <mxPoint x="410" y="499" as="targetPoint" />
          </mxGeometry>
        </mxCell>
        <mxCell id="_y7poPwMKWdNdrLzsewM-30" style="edgeStyle=orthogonalEdgeStyle;rounded=0;orthogonalLoop=1;jettySize=auto;html=1;exitX=0;exitY=1;exitDx=0;exitDy=0;strokeColor=#A8201A;fontColor=default;fillColor=#FAE5C7;endArrow=block;endFill=1;labelBackgroundColor=none;entryX=0;entryY=0;entryDx=0;entryDy=0;" edge="1" parent="_y7poPwMKWdNdrLzsewM-22" source="_y7poPwMKWdNdrLzsewM-27" target="_y7poPwMKWdNdrLzsewM-35">
          <mxGeometry relative="1" as="geometry">
            <mxPoint x="140" y="469" as="targetPoint" />
          </mxGeometry>
        </mxCell>
        <mxCell id="_y7poPwMKWdNdrLzsewM-31" value="[Oui]" style="text;html=1;align=center;verticalAlign=middle;whiteSpace=wrap;rounded=0;fontColor=#143642;labelBackgroundColor=none;" vertex="1" parent="_y7poPwMKWdNdrLzsewM-22">
          <mxGeometry x="100" y="370" width="40" height="30" as="geometry" />
        </mxCell>
        <mxCell id="_y7poPwMKWdNdrLzsewM-32" value="[Oui]" style="text;html=1;align=center;verticalAlign=middle;whiteSpace=wrap;rounded=0;fontColor=#143642;labelBackgroundColor=none;" vertex="1" parent="_y7poPwMKWdNdrLzsewM-22">
          <mxGeometry x="205" y="426" width="40" height="21" as="geometry" />
        </mxCell>
        <mxCell id="_y7poPwMKWdNdrLzsewM-33" style="edgeStyle=orthogonalEdgeStyle;rounded=0;orthogonalLoop=1;jettySize=auto;html=1;exitX=1;exitY=0;exitDx=0;exitDy=0;strokeColor=#A8201A;fontColor=default;fillColor=#FAE5C7;endArrow=block;endFill=1;labelBackgroundColor=none;entryX=1;entryY=1;entryDx=0;entryDy=0;" edge="1" parent="_y7poPwMKWdNdrLzsewM-22" source="_y7poPwMKWdNdrLzsewM-35" target="_y7poPwMKWdNdrLzsewM-27">
          <mxGeometry relative="1" as="geometry">
            <mxPoint x="180" y="469" as="sourcePoint" />
            <mxPoint x="170" y="459" as="targetPoint" />
          </mxGeometry>
        </mxCell>
        <mxCell id="_y7poPwMKWdNdrLzsewM-34" value="[Non]" style="text;html=1;align=center;verticalAlign=middle;whiteSpace=wrap;rounded=0;fontColor=#143642;labelBackgroundColor=none;" vertex="1" parent="_y7poPwMKWdNdrLzsewM-22">
          <mxGeometry x="175" y="389" width="60" height="30" as="geometry" />
        </mxCell>
        <mxCell id="_y7poPwMKWdNdrLzsewM-35" value="Ordre reçu ?" style="rhombus;whiteSpace=wrap;html=1;labelBackgroundColor=none;fillColor=#FAE5C7;strokeColor=#0F8B8D;fontColor=#143642;rounded=0;" vertex="1" parent="_y7poPwMKWdNdrLzsewM-22">
          <mxGeometry x="115" y="404" width="90" height="90" as="geometry" />
        </mxCell>
        <mxCell id="_y7poPwMKWdNdrLzsewM-38" style="edgeStyle=orthogonalEdgeStyle;rounded=0;orthogonalLoop=1;jettySize=auto;html=1;exitX=0.5;exitY=0;exitDx=0;exitDy=0;entryX=0.5;entryY=1;entryDx=0;entryDy=0;endArrow=block;endFill=1;labelBackgroundColor=none;strokeColor=#A8201A;fontColor=default;" edge="1" parent="_y7poPwMKWdNdrLzsewM-22" source="_y7poPwMKWdNdrLzsewM-39" target="_y7poPwMKWdNdrLzsewM-43">
          <mxGeometry relative="1" as="geometry">
            <mxPoint x="650" y="378.5" as="targetPoint" />
          </mxGeometry>
        </mxCell>
        <mxCell id="_y7poPwMKWdNdrLzsewM-39" value="Mettre la puissance demandée aux deux moteurs" style="rounded=0;whiteSpace=wrap;html=1;labelBackgroundColor=none;fillColor=#FAE5C7;strokeColor=#0F8B8D;fontColor=#143642;" vertex="1" parent="_y7poPwMKWdNdrLzsewM-22">
          <mxGeometry x="320" y="419" width="120" height="60" as="geometry" />
        </mxCell>
        <mxCell id="_y7poPwMKWdNdrLzsewM-42" value="" style="edgeStyle=orthogonalEdgeStyle;rounded=0;orthogonalLoop=1;jettySize=auto;html=1;strokeColor=#A8201A;fontColor=default;fillColor=#FAE5C7;endArrow=block;endFill=1;labelBackgroundColor=none;" edge="1" parent="_y7poPwMKWdNdrLzsewM-22" source="_y7poPwMKWdNdrLzsewM-43" target="_y7poPwMKWdNdrLzsewM-44">
          <mxGeometry relative="1" as="geometry" />
        </mxCell>
        <mxCell id="_y7poPwMKWdNdrLzsewM-43" value="Mettre le sens demandé aux deux moteurs" style="rounded=0;whiteSpace=wrap;html=1;labelBackgroundColor=none;fillColor=#FAE5C7;strokeColor=#0F8B8D;fontColor=#143642;" vertex="1" parent="_y7poPwMKWdNdrLzsewM-22">
          <mxGeometry x="320" y="311" width="120" height="60" as="geometry" />
        </mxCell>
        <mxCell id="_y7poPwMKWdNdrLzsewM-44" value="Exécuter la requête pendant la durée indiquée" style="whiteSpace=wrap;html=1;fillColor=#FAE5C7;strokeColor=#0F8B8D;fontColor=#143642;rounded=0;labelBackgroundColor=none;" vertex="1" parent="_y7poPwMKWdNdrLzsewM-22">
          <mxGeometry x="320" y="200" width="120" height="60" as="geometry" />
        </mxCell>
        <mxCell id="_y7poPwMKWdNdrLzsewM-45" value="Exécuter l&#39;ordre" style="rounded=0;whiteSpace=wrap;html=1;labelBackgroundColor=none;fillColor=#FAE5C7;strokeColor=#0F8B8D;fontColor=#143642;" vertex="1" parent="_y7poPwMKWdNdrLzsewM-22">
          <mxGeometry x="320" y="100" width="120" height="60" as="geometry" />
        </mxCell>
        <mxCell id="_y7poPwMKWdNdrLzsewM-59" style="edgeStyle=orthogonalEdgeStyle;rounded=0;orthogonalLoop=1;jettySize=auto;html=1;exitX=1;exitY=0.5;exitDx=0;exitDy=0;entryX=0;entryY=0.5;entryDx=0;entryDy=0;strokeColor=#A8201A;fontColor=default;fillColor=#FAE5C7;endArrow=block;endFill=1;labelBackgroundColor=none;" edge="1" parent="_y7poPwMKWdNdrLzsewM-22" source="_y7poPwMKWdNdrLzsewM-35" target="_y7poPwMKWdNdrLzsewM-39">
          <mxGeometry relative="1" as="geometry">
            <mxPoint x="200" y="489" as="sourcePoint" />
            <mxPoint x="310" y="449" as="targetPoint" />
          </mxGeometry>
        </mxCell>
        <mxCell id="_y7poPwMKWdNdrLzsewM-61" value="" style="edgeStyle=orthogonalEdgeStyle;rounded=0;orthogonalLoop=1;jettySize=auto;html=1;endArrow=block;endFill=1;strokeColor=#A8201A;labelBackgroundColor=none;fontColor=default;exitX=0;exitY=0.5;exitDx=0;exitDy=0;entryX=1;entryY=0.5;entryDx=0;entryDy=0;" edge="1" parent="_y7poPwMKWdNdrLzsewM-22" source="_y7poPwMKWdNdrLzsewM-45" target="_y7poPwMKWdNdrLzsewM-27">
          <mxGeometry relative="1" as="geometry">
            <mxPoint x="500" y="220" as="sourcePoint" />
            <mxPoint x="330" y="400" as="targetPoint" />
          </mxGeometry>
        </mxCell>
        <mxCell id="_y7poPwMKWdNdrLzsewM-67" style="edgeStyle=orthogonalEdgeStyle;rounded=0;orthogonalLoop=1;jettySize=auto;html=1;exitX=0.5;exitY=0;exitDx=0;exitDy=0;entryX=0.5;entryY=1;entryDx=0;entryDy=0;endArrow=block;endFill=1;labelBackgroundColor=none;strokeColor=#A8201A;fontColor=default;" edge="1" parent="_y7poPwMKWdNdrLzsewM-22" source="_y7poPwMKWdNdrLzsewM-44" target="_y7poPwMKWdNdrLzsewM-45">
          <mxGeometry relative="1" as="geometry">
            <mxPoint x="390" y="381" as="targetPoint" />
            <mxPoint x="390" y="429" as="sourcePoint" />
          </mxGeometry>
        </mxCell>
        <mxCell id="_y7poPwMKWdNdrLzsewM-64" value="Ordres" style="html=1;whiteSpace=wrap;rounded=0;labelBackgroundColor=none;fillColor=#FAE5C7;strokeColor=#0F8B8D;fontColor=#143642;" vertex="1" parent="1">
          <mxGeometry x="970" y="585.5" width="80" height="45" as="geometry" />
        </mxCell>
        <mxCell id="_y7poPwMKWdNdrLzsewM-65" style="edgeStyle=orthogonalEdgeStyle;rounded=0;orthogonalLoop=1;jettySize=auto;html=1;entryX=1;entryY=0.5;entryDx=0;entryDy=0;startArrow=open;startFill=0;endArrow=none;endFill=0;dashed=1;dashPattern=8 8;exitX=0;exitY=0.5;exitDx=0;exitDy=0;" edge="1" parent="1" source="_y7poPwMKWdNdrLzsewM-35" target="_y7poPwMKWdNdrLzsewM-64">
          <mxGeometry relative="1" as="geometry">
            <mxPoint x="1170" y="659" as="sourcePoint" />
            <mxPoint x="930" y="613" as="targetPoint" />
          </mxGeometry>
        </mxCell>
        <mxCell id="_y7poPwMKWdNdrLzsewM-66" style="edgeStyle=orthogonalEdgeStyle;rounded=0;orthogonalLoop=1;jettySize=auto;html=1;exitX=0;exitY=0.5;exitDx=0;exitDy=0;startArrow=open;startFill=0;endArrow=none;endFill=0;dashed=1;dashPattern=8 8;" edge="1" parent="1" source="_y7poPwMKWdNdrLzsewM-18">
          <mxGeometry relative="1" as="geometry">
            <mxPoint x="705" y="504" as="sourcePoint" />
            <mxPoint x="780" y="494" as="targetPoint" />
          </mxGeometry>
        </mxCell>
      </root>
    </mxGraphModel>
  </diagram>
</mxfile>
